<svg width="194" height="96" viewBox="0 0 194 96" fill="none" xmlns="http://www.w3.org/2000/svg">
<path d="M55.1004 30.5266C54.9738 30.78 54.7838 31.2866 54.6571 31.6666C50.2871 42.4966 38.5071 58.8366 27.1071 69.8566C18.1138 78.5333 8.36044 84.6766 5.32044 83.6633C5.19378 83.6 4.81378 83.5366 4.49711 83.4733C0.443776 82.84 0.0637761 75.81 3.61044 68.02C4.43378 66.1833 4.43378 66.1833 3.61044 65.2966C0.000442535 61.4966 0.127109 54.0866 4.05378 44.7766C8.48711 34.2633 16.4038 23.37 26.1571 14.5033C42.0538 -2.36034e-05 57.8238 0.126643 58.4571 14.7566C58.6471 19.19 57.4438 25.0166 55.1004 30.5266ZM42.6238 50.16C43.5104 48.8933 46.3604 44.5866 47.2471 43.1933C50.6038 37.7466 54.4038 29.7033 55.5438 25.3333C55.6071 25.08 55.7971 24.51 55.9238 24.13C58.5838 14.5666 56.4938 7.40998 50.7304 5.88998C48.6404 5.31998 44.0171 5.69998 41.8638 6.52331C41.4204 6.71331 40.6604 6.96665 40.2171 7.15665C32.1104 9.87998 17.4804 23.8766 10.1971 36.0366C2.21711 49.2733 0.000442535 60.23 4.49711 64.4733L5.00378 64.98L5.32044 64.3466C10.5138 54.2766 21.5971 39.52 25.4604 37.4933C26.9171 36.7333 27.8671 37.43 27.3604 38.8866C27.0438 39.9 26.6004 40.28 26.1571 39.8366C25.2704 39.0766 17.5438 48.1333 12.0971 56.3033C9.69044 59.9133 6.46044 65.36 6.46044 65.8033C6.46044 66.8166 11.1471 67.1333 13.0471 66.1833C13.9971 65.74 14.6304 66.69 13.8704 67.45C12.8571 68.3366 7.60044 68.21 6.14378 67.26C5.70044 67.0066 5.70044 67.0066 5.06711 68.4C0.570443 78.2166 2.09044 84.2966 8.55044 82.0166C16.9738 79.04 32.6804 64.6 41.4838 51.7433C41.6738 51.49 42.1804 50.7933 42.6238 50.16ZM95.9138 47.5C96.2938 47.8166 96.1672 48.7033 89.8338 53.8966C80.0172 61.94 74.1272 59.5966 78.1172 48.3866C79.1938 45.41 78.8138 44.7766 78.3705 44.5866C77.8005 44.3333 74.9505 46.4866 71.2772 49.97C65.5772 55.4166 63.8038 54.72 65.7038 47.5633C66.4638 44.5866 66.7172 43.32 66.5905 43.1933C66.0838 42.6866 61.6505 47.0566 56.5205 53.77C51.4538 60.42 50.5672 60.5466 49.9338 59.47C49.0472 57.8866 59.1172 39.0766 60.7638 39.0766C62.0305 39.0766 61.7772 39.7733 59.3705 43.7633C55.0005 50.9833 50.9472 58.6466 51.7072 58.14C51.7705 58.0766 53.1005 56.4933 54.6205 54.5933C63.9305 42.94 66.4638 40.47 67.7938 41.8633C68.2372 42.37 68.1738 44.0166 67.6672 45.6633C65.1972 53.8333 65.7038 53.96 72.7972 47.1833C78.7505 41.5466 81.7905 41.99 79.6372 47.6266C74.8238 59.9766 80.5872 61.56 92.7472 49.78C94.2038 48.3233 95.2805 46.9933 95.9138 47.5ZM154.918 47.5C155.298 47.8166 155.171 48.7033 148.838 53.8966C139.021 61.94 133.131 59.5966 137.121 48.3866C138.198 45.41 137.818 44.7766 137.374 44.5866C136.804 44.3333 133.954 46.4866 130.281 49.97C124.581 55.4166 122.808 54.72 124.708 47.5633C125.468 44.5866 125.721 43.32 125.594 43.1933C125.088 42.6866 120.654 47.0566 115.524 53.77C110.458 60.42 109.571 60.5466 108.938 59.47C108.051 57.8866 118.121 39.0766 119.768 39.0766C121.034 39.0766 120.781 39.7733 118.374 43.7633C114.004 50.9833 109.951 58.6466 110.711 58.14C110.774 58.0766 112.104 56.4933 113.624 54.5933C122.934 42.94 125.468 40.47 126.798 41.8633C127.241 42.37 127.178 44.0166 126.671 45.6633C124.201 53.8333 124.708 53.96 131.801 47.1833C137.754 41.5466 140.794 41.99 138.641 47.6266C133.828 59.9766 139.591 61.56 151.751 49.78C153.208 48.3233 154.284 46.9933 154.918 47.5ZM162.283 37.81C161.967 38.19 161.143 38.1266 160.827 37.62C160.257 36.7966 161.397 35.6566 162.22 36.29C162.537 36.5433 162.6 37.5566 162.283 37.81ZM151.517 61.4966C147.147 60.04 151.707 50.2233 156.837 42.8133C158.293 40.66 160.003 40.9766 158.23 43.6366C145.183 63.9033 151.643 66.5 167.603 49.78C169.313 47.9433 169.44 47.9433 169.693 48.3866C169.883 48.7033 169.567 49.02 167.73 50.8566C158.483 59.9133 154.177 62.4466 151.517 61.4966ZM193.026 47.6266C193.849 47.6266 193.976 48.3233 193.152 48.5133C190.112 49.1466 184.856 51.3 178.016 57.19C177.382 57.6966 176.939 58.5833 176.306 59.7866C173.899 64.6633 173.012 66.2466 170.036 71.3133C167.059 76.2533 166.806 76.6333 162.942 82.27C157.812 89.7433 151.922 95.4433 150.529 94.24C147.679 91.6433 161.106 72.0733 174.532 59.3433C175.546 58.3933 179.156 50.0333 179.852 47.12L179.916 46.74L179.409 47.0566C178.522 47.69 177.002 49.3366 172.759 53.96C167.122 60.2933 165.792 61.3066 164.716 60.04C164.336 59.5966 164.462 57.57 164.969 56.1766C165.032 55.9866 165.286 55.3533 165.539 54.7833C168.326 47.6266 174.849 38.95 177.509 38.8233C179.472 38.76 179.979 40.5966 179.282 45.03L179.219 45.79L179.662 45.4733C181.436 44.46 181.942 46.0433 180.802 49.21C180.676 49.59 180.422 50.2233 180.296 50.6033C180.169 50.9833 179.599 52.3766 179.029 53.6433C178.396 55.1633 177.699 56.43 177.889 56.3033C183.336 51.2366 190.556 47.8166 193.026 47.6266ZM178.459 43.32C178.712 39.0766 177.319 39.3933 173.266 44.65C170.669 48.0066 166.679 55.1633 165.856 57.95C165.412 59.5333 165.666 59.85 166.869 58.9C167.882 58.2033 169.719 56.24 172.506 53.0733C173.709 51.68 175.482 49.7166 176.432 48.7033C178.332 46.55 178.332 46.55 178.459 43.32ZM173.582 61.8766L174.026 60.99L173.456 61.56C171.429 63.5866 170.732 64.3466 168.642 66.6266C165.032 70.49 162.309 73.8466 159.586 77.5833C159.016 78.3433 158.572 78.9766 158.509 79.04C157.496 79.99 153.062 87.3366 152.112 89.68C150.656 93.1633 150.719 94.1133 152.429 92.8466C154.646 91.2633 159.142 85.88 162.942 80.18C163.892 78.7233 164.842 77.33 165.096 76.95C165.476 76.38 169.846 68.97 170.542 67.7033C170.986 66.88 173.076 62.89 173.582 61.8766Z" fill="#F1E4D6"/>
</svg>
